[
    {
        "index": 0,
        "codec_name": "h264",
        "codec_long_name": "H.264 / AVC / MPEG-4 AVC / MPEG-4 part 10",
        "profile": "High",
        "codec_type": "video",
        "codec_tag_string": "[27][0][0][0]",
        "codec_tag": "0x001b",
        "width": 1920,
        "height": 1080,
        "coded_width": 1920,
        "coded_height": 1080,
        "closed_captions": 0,
        "film_grain": 0,
        "has_b_frames": 1,
        "sample_aspect_ratio": "1:1",
        "display_aspect_ratio": "16:9",
        "pix_fmt": "yuv420p",
        "level": 40,
        "color_range": "tv",
        "color_space": "bt709",
        "color_transfer": "bt709",
        "color_primaries": "bt709",
        "chroma_location": "left",
        "field_order": "tt",
        "refs": 1,
        "is_avc": "false",
        "nal_length_size": "0",
        "ts_id": "1",
        "ts_packetsize": "188",
        "id": "0x1e1",
        "r_frame_rate": "50/1",
        "avg_frame_rate": "25/1",
        "time_base": "1/90000",
        "start_pts": 93600,
        "start_time": "1.040000",
        "duration_ts": 1353600,
        "duration": "15.040000",
        "bits_per_raw_sample": "8",
        "extradata_size": 55,
        "disposition": {
            "default": 0,
            "dub": 0,
            "original": 0,
            "comment": 0,
            "lyrics": 0,
            "karaoke": 0,
            "forced": 0,
            "hearing_impaired": 0,
            "visual_impaired": 0,
            "clean_effects": 0,
            "attached_pic": 0,
            "timed_thumbnails": 0,
            "non_diegetic": 0,
            "captions": 0,
            "descriptions": 0,
            "metadata": 0,
            "dependent": 0,
            "still_image": 0
        }
    },
    {
        "index": 1,
        "codec_name": "ac3",
        "codec_long_name": "ATSC A/52A (AC-3)",
        "codec_type": "audio",
        "codec_tag_string": "AC-3",
        "codec_tag": "0x332d4341",
        "sample_fmt": "fltp",
        "sample_rate": "48000",
        "channels": 2,
        "channel_layout": "stereo",
        "bits_per_sample": 0,
        "initial_padding": 0,
        "ts_id": "1",
        "ts_packetsize": "188",
        "id": "0x20",
        "r_frame_rate": "0/0",
        "avg_frame_rate": "0/0",
        "time_base": "1/90000",
        "start_pts": 93600,
        "start_time": "1.040000",
        "duration_ts": 1356480,
        "duration": "15.072000",
        "bit_rate": "256000",
        "disposition": {
            "default": 0,
            "dub": 0,
            "original": 0,
            "comment": 0,
            "lyrics": 0,
            "karaoke": 0,
            "forced": 0,
            "hearing_impaired": 0,
            "visual_impaired": 0,
            "clean_effects": 0,
            "attached_pic": 0,
            "timed_thumbnails": 0,
            "non_diegetic": 0,
            "captions": 0,
            "descriptions": 0,
            "metadata": 0,
            "dependent": 0,
            "still_image": 0
        },
        "tags": {
            "language": "eng"
        }
    },
    {
        "index": 2,
        "codec_name": "mp2",
        "codec_long_name": "MP2 (MPEG audio layer 2)",
        "codec_type": "audio",
        "codec_tag_string": "[3][0][0][0]",
        "codec_tag": "0x0003",
        "sample_fmt": "fltp",
        "sample_rate": "48000",
        "channels": 2,
        "channel_layout": "stereo",
        "bits_per_sample": 0,
        "initial_padding": 0,
        "ts_id": "1",
        "ts_packetsize": "188",
        "id": "0x21",
        "r_frame_rate": "0/0",
        "avg_frame_rate": "0/0",
        "time_base": "1/90000",
        "start_pts": 93600,
        "start_time": "1.040000",
        "duration_ts": 1354320,
        "duration": "15.048000",
        "bit_rate": "192000",
        "disposition": {
            "default": 0,
            "dub": 0,
            "original": 0,
            "comment": 0,
            "lyrics": 0,
            "karaoke": 0,
            "forced": 0,
            "hearing_impaired": 0,
            "visual_impaired": 0,
            "clean_effects": 0,
            "attached_pic": 0,
            "timed_thumbnails": 0,
            "non_diegetic": 0,
            "captions": 0,
            "descriptions": 0,
            "metadata": 0,
            "dependent": 0,
            "still_image": 0
        },
        "tags": {
            "language": "eng"
        }
    }
]